<?xml version="1.0" encoding="utf-8"?>
<!-- Generator: Adobe Illustrator 19.0.0, SVG Export Plug-In . SVG Version: 6.00 Build 0)  -->
<svg version="1.1" id="Layer_1" xmlns="http://www.w3.org/2000/svg" xmlns:xlink="http://www.w3.org/1999/xlink" x="0px" y="0px"
	 viewBox="0 0 150 60" style="enable-background:new 0 0 150 60;" xml:space="preserve">
<style type="text/css">
	.st0{fill:#FFFFFF;}
</style>
<g id="XMLID_4_">
	<path id="XMLID_5_" class="st0" d="M36.4,7.6c0.3-0.3,0.7-0.5,1.1-0.5c0.4,0,0.8,0.2,1.1,0.5c0.6,0.6,0.6,1.7,0,2.3L18.6,30
		l20.1,20.1c0.6,0.6,0.6,1.7,0,2.3C38,53,37,53,36.4,52.4L15.2,31.1c-0.6-0.6-0.6-1.7,0-2.3L36.4,7.6z"/>
</g>
<g id="XMLID_2_">
	<path id="XMLID_3_" class="st0" d="M116.9,51.4c-0.3,0.3-0.7,0.5-1.1,0.5s-0.8-0.2-1.1-0.5c-0.6-0.6-0.6-1.7,0-2.3L134.7,29
		L114.6,9c-0.6-0.6-0.6-1.7,0-2.3s1.7-0.6,2.3,0l21.2,21.2c0.6,0.6,0.6,1.7,0,2.3L116.9,51.4z"/>
</g>
</svg>
