<?xml version="1.0" encoding="utf-8"?>
<!-- Generator: Adobe Illustrator 19.0.0, SVG Export Plug-In . SVG Version: 6.00 Build 0)  -->
<svg version="1.1" id="Layer_1" xmlns="http://www.w3.org/2000/svg" xmlns:xlink="http://www.w3.org/1999/xlink" x="0px" y="0px"
	 viewBox="0 0 15 15" style="enable-background:new 0 0 15 15;" xml:space="preserve">
<style type="text/css">
	.st0{fill:#FFFFFF;}
</style>
<g id="XMLID_5_">
	<path id="XMLID_7_" class="st0" d="M14.9,7.1c-0.1-0.2-3.3-4.4-7.4-4.4c-4.1,0-7.2,4.2-7.4,4.4C0,7.3,0,7.7,0.1,7.9
		c0.1,0.2,3.3,4.4,7.4,4.4c4.1,0,7.2-4.2,7.4-4.4C15,7.7,15,7.3,14.9,7.1z M7.5,10C6.1,10,5,8.9,5,7.5C5,6.1,6.1,5,7.5,5
		C8.9,5,10,6.1,10,7.5C10,8.9,8.9,10,7.5,10z"/>
	<circle id="XMLID_1_" class="st0" cx="7.5" cy="7.5" r="1.1"/>
</g>
</svg>
