<?xml version="1.0" encoding="utf-8"?>
<!-- Generator: Adobe Illustrator 19.0.0, SVG Export Plug-In . SVG Version: 6.00 Build 0)  -->
<svg version="1.1" id="Layer_1" xmlns="http://www.w3.org/2000/svg" xmlns:xlink="http://www.w3.org/1999/xlink" x="0px" y="0px"
	 viewBox="0 0 150 120" style="enable-background:new 0 0 150 120;" xml:space="preserve">
<style type="text/css">
	.st0{fill:#FFFFFF;}
	.st1{fill:#6D6D6D;}
</style>
<g id="XMLID_2_">
	<path id="XMLID_3_" class="st0" d="M24.1,1.7l-5.2,0c-5.8,0-9.6,3.9-9.6,9.8v4.5H4.1c-0.5,0-0.8,0.4-0.8,0.8v6.6
		c0,0.5,0.4,0.8,0.8,0.8h5.2v16.6c0,0.5,0.4,0.8,0.8,0.8h6.8c0.5,0,0.8-0.4,0.8-0.8V24.3h6.1c0.5,0,0.8-0.4,0.8-0.8l0-6.6
		c0-0.2-0.1-0.4-0.2-0.6c-0.2-0.2-0.4-0.2-0.6-0.2h-6.1v-3.8c0-1.8,0.4-2.8,2.8-2.8l3.5,0c0.5,0,0.8-0.4,0.8-0.8V2.6
		C24.9,2.1,24.5,1.7,24.1,1.7z"/>
</g>
<g id="XMLID_13_">
	<path id="XMLID_15_" class="st1" d="M24.1,75.7l-5.2,0c-5.8,0-9.6,3.9-9.6,9.8v4.5H4.1c-0.5,0-0.8,0.4-0.8,0.8v6.6
		c0,0.5,0.4,0.8,0.8,0.8h5.2v16.6c0,0.5,0.4,0.8,0.8,0.8h6.8c0.5,0,0.8-0.4,0.8-0.8V98.3h6.1c0.5,0,0.8-0.4,0.8-0.8l0-6.6
		c0-0.2-0.1-0.4-0.2-0.6c-0.2-0.2-0.4-0.2-0.6-0.2h-6.1v-3.8c0-1.8,0.4-2.8,2.8-2.8l3.5,0c0.5,0,0.8-0.4,0.8-0.8v-6.1
		C24.9,76.1,24.5,75.7,24.1,75.7z"/>
</g>
<g id="XMLID_4_">
	<g id="XMLID_5_">
		<path id="XMLID_6_" class="st0" d="M96.7,6.4C94.9,7.2,93,7.8,90.9,8c2.1-1.3,3.7-3.2,4.5-5.6c-2,1.2-4.1,2-6.4,2.5
			c-1.8-2-4.5-3.2-7.4-3.2c-5.6,0-10.1,4.5-10.1,10.1c0,0.8,0.1,1.6,0.3,2.3c-8.4-0.4-15.9-4.5-20.9-10.6c-0.9,1.5-1.4,3.2-1.4,5.1
			c0,3.5,1.8,6.6,4.5,8.4c-1.7-0.1-3.2-0.5-4.6-1.3v0.1c0,4.9,3.5,9,8.1,9.9c-0.8,0.2-1.7,0.4-2.7,0.4c-0.7,0-1.3-0.1-1.9-0.2
			c1.3,4,5,7,9.5,7c-3.5,2.7-7.8,4.3-12.6,4.3c-0.8,0-1.6,0-2.4-0.1c4.5,2.9,9.8,4.6,15.5,4.6c18.6,0,28.8-15.4,28.8-28.8l0-1.3
			C93.7,10.2,95.4,8.4,96.7,6.4z"/>
	</g>
</g>
<g id="XMLID_16_">
	<g id="XMLID_17_">
		<path id="XMLID_18_" class="st1" d="M94.5,80.4c-1.8,0.8-3.8,1.4-5.8,1.6c2.1-1.3,3.7-3.2,4.5-5.6c-2,1.2-4.1,2-6.4,2.5
			c-1.8-2-4.5-3.2-7.4-3.2c-5.6,0-10.1,4.5-10.1,10.1c0,0.8,0.1,1.6,0.3,2.3c-8.4-0.4-15.9-4.5-20.9-10.6c-0.9,1.5-1.4,3.2-1.4,5.1
			c0,3.5,1.8,6.6,4.5,8.4c-1.7-0.1-3.2-0.5-4.6-1.3v0.1c0,4.9,3.5,9,8.1,9.9c-0.8,0.2-1.7,0.4-2.7,0.4c-0.7,0-1.3-0.1-1.9-0.2
			c1.3,4,5,7,9.5,7c-3.5,2.7-7.8,4.3-12.6,4.3c-0.8,0-1.6,0-2.4-0.1c4.5,2.9,9.8,4.6,15.5,4.6c18.6,0,28.8-15.4,28.8-28.8l0-1.3
			C91.4,84.2,93.1,82.4,94.5,80.4z"/>
	</g>
</g>
<g id="XMLID_11_">
	<g id="XMLID_12_">
		<path id="XMLID_14_" class="st0" d="M134.1,1.7h-10c-4.5,0-7.6,1-10.3,3.3c-2.2,1.9-3.5,4.6-3.5,7.3c0,4.2,3.2,8.6,9.1,8.6
			c0.6,0,1.2-0.1,1.7-0.1L121,21c-0.2,0.6-0.5,1.1-0.5,1.9c0,1.6,0.8,2.6,1.5,3.6l0.1,0.1l-0.2,0c-2.4,0.2-7,0.5-10.3,2.5
			c-3.9,2.3-4.2,5.7-4.2,6.7c0,3.9,3.6,7.8,11.7,7.8c9.4,0,14.4-5.2,14.4-10.3c0-3.8-2.2-5.7-4.6-7.7l-2-1.6
			c-0.6-0.5-1.4-1.1-1.4-2.3c0-1.2,0.8-1.9,1.4-2.6l0.1-0.1c2.2-1.7,4.6-3.6,4.6-7.8c0-4.2-2.6-6.4-3.9-7.4h3.3c0,0,0.1,0,0.1,0
			l2.9-1.8c0.1-0.1,0.1-0.2,0.1-0.2C134.3,1.8,134.2,1.7,134.1,1.7z M122,41.4c-5.8,0-9.6-2.7-9.6-6.7c0-2.6,1.6-4.5,4.7-5.6
			c2.5-0.8,5.7-0.9,5.7-0.9c0.5,0,0.8,0,1.3,0.1c4,2.9,6,4.4,6,7.2C130,39.2,126.9,41.4,122,41.4z M121.9,19.4
			c-4.8,0-6.8-6.3-6.8-9.7c0-1.7,0.4-3.1,1.2-4.1c0.9-1.1,2.4-1.8,3.8-1.8c4.4,0,6.9,6,6.9,10.1c0,0.6,0,2.6-1.4,4
			C124.7,18.8,123.2,19.4,121.9,19.4z"/>
		<path id="XMLID_1_" class="st0" d="M148.1,21.3h-5.3v-5.3c0-0.1-0.1-0.2-0.2-0.2h-2.3c-0.1,0-0.2,0.1-0.2,0.2v5.3h-5.3
			c-0.1,0-0.2,0.1-0.2,0.2v2.3c0,0.1,0.1,0.2,0.2,0.2h5.3v5.3c0,0.1,0.1,0.2,0.2,0.2h2.3c0.1,0,0.2-0.1,0.2-0.2v-5.3h5.3
			c0.1,0,0.2-0.1,0.2-0.2v-2.3C148.4,21.4,148.3,21.3,148.1,21.3z"/>
	</g>
</g>
<g id="XMLID_19_">
	<g id="XMLID_20_">
		<path id="XMLID_22_" class="st1" d="M134.1,74.7h-10c-4.5,0-7.6,1-10.3,3.3c-2.2,1.9-3.5,4.6-3.5,7.3c0,4.2,3.2,8.6,9.1,8.6
			c0.6,0,1.2-0.1,1.7-0.1L121,94c-0.2,0.6-0.5,1.1-0.5,1.9c0,1.6,0.8,2.6,1.5,3.6l0.1,0.1l-0.2,0c-2.4,0.2-7,0.5-10.3,2.5
			c-3.9,2.3-4.2,5.7-4.2,6.7c0,3.9,3.6,7.8,11.7,7.8c9.4,0,14.4-5.2,14.4-10.3c0-3.8-2.2-5.7-4.6-7.7l-2-1.6
			c-0.6-0.5-1.4-1.1-1.4-2.3c0-1.2,0.8-1.9,1.4-2.6l0.1-0.1c2.2-1.7,4.6-3.6,4.6-7.8c0-4.2-2.6-6.4-3.9-7.4h3.3c0,0,0.1,0,0.1,0
			l2.9-1.8c0.1-0.1,0.1-0.2,0.1-0.2C134.3,74.8,134.2,74.7,134.1,74.7z M122,114.4c-5.8,0-9.6-2.7-9.6-6.7c0-2.6,1.6-4.5,4.7-5.6
			c2.5-0.8,5.7-0.9,5.7-0.9c0.5,0,0.8,0,1.3,0.1c4,2.9,6,4.4,6,7.2C130,112.2,126.9,114.4,122,114.4z M121.9,92.4
			c-4.8,0-6.8-6.3-6.8-9.7c0-1.7,0.4-3.1,1.2-4.1c0.9-1.1,2.4-1.8,3.8-1.8c4.4,0,6.9,6,6.9,10.1c0,0.6,0,2.6-1.4,4
			C124.7,91.8,123.2,92.4,121.9,92.4z"/>
		<path id="XMLID_21_" class="st1" d="M148.1,94.3h-5.3v-5.3c0-0.1-0.1-0.2-0.2-0.2h-2.3c-0.1,0-0.2,0.1-0.2,0.2v5.3h-5.3
			c-0.1,0-0.2,0.1-0.2,0.2v2.3c0,0.1,0.1,0.2,0.2,0.2h5.3v5.3c0,0.1,0.1,0.2,0.2,0.2h2.3c0.1,0,0.2-0.1,0.2-0.2v-5.3h5.3
			c0.1,0,0.2-0.1,0.2-0.2v-2.3C148.4,94.4,148.3,94.3,148.1,94.3z"/>
	</g>
</g>
</svg>
